<?xml version="1.0" encoding="UTF-8" standalone="no"?>
<!DOCTYPE svg PUBLIC "-//W3C//DTD SVG 1.1//EN" "http://www.w3.org/Graphics/SVG/1.1/DTD/svg11.dtd">
<svg width="100%" height="100%" viewBox="0 0 153 96" version="1.1" xmlns="http://www.w3.org/2000/svg" xmlns:xlink="http://www.w3.org/1999/xlink" xml:space="preserve" xmlns:serif="http://www.serif.com/" style="fill-rule:evenodd;clip-rule:evenodd;stroke-linejoin:round;stroke-miterlimit:2;">
    <g id="ArtBoard1" transform="matrix(1.00022,0,0,1.00022,2.01618,0)">
        <rect x="-2.016" y="0" width="152.016" height="95.679" style="fill:none;"/>
        <clipPath id="_clip1">
            <rect x="-2.016" y="0" width="152.016" height="95.679"/>
        </clipPath>
        <g clip-path="url(#_clip1)">
            <g transform="matrix(2.15924,0,0,4.81084,-131.393,30.7265)">
                <g transform="matrix(0.351594,0,0,0.157805,-503.336,-28.8581)">
                    <path d="M1677.65,196.107C1677.16,196.205 1676.65,196.057 1676.29,195.709C1675.93,195.361 1675.77,194.859 1675.86,194.367C1681.09,164.862 1706.89,142.427 1737.89,142.427C1772.66,142.427 1800.89,170.656 1800.89,205.427C1800.89,240.198 1772.66,268.428 1737.89,268.428C1721.95,268.428 1707.38,262.494 1696.28,252.717C1695.73,252.218 1695.45,251.481 1695.54,250.741C1695.63,250.002 1696.07,249.351 1696.72,248.995C1696.72,248.986 1696.72,248.986 1696.72,248.985C1697,248.835 1697.31,248.757 1697.62,248.757C1697.87,248.756 1698.12,248.756 1698.12,248.756C1708.6,258.375 1722.56,264.25 1737.89,264.25C1770.35,264.25 1796.71,237.892 1796.71,205.427C1796.71,172.962 1770.35,146.605 1737.89,146.605C1709.52,146.605 1685.82,166.724 1680.29,193.462C1680.02,194.794 1678.98,195.835 1677.65,196.103C1677.65,196.107 1677.65,196.107 1677.65,196.107Z" style="fill:white;"/>
                </g>
                <g transform="matrix(0.194081,0,0,0.0871089,-232.543,-12.1849)">
                    <text x="1504.87px" y="242.056px" style="font-family:'FONTSPRINGDEMO-LufgaMediumItalic', 'Lufga';font-weight:500;font-style:italic;font-size:114.79px;fill:white;">Pro</text>
                </g>
                <g transform="matrix(0.351594,0,0,0.157805,95.5406,9.05122)">
                    <path d="M32.865,-19.906L25.118,-28.15C23.747,-29.608 23.174,-31.644 23.581,-33.603L26.069,-45.561L24.692,-44.857C23.971,-44.488 23.431,-43.844 23.195,-43.07C22.131,-39.595 19.144,-29.834 19.144,-29.834C18.516,-27.784 16.342,-26.629 14.291,-27.256C12.241,-27.884 11.086,-30.058 11.713,-32.109L16.727,-48.491C16.963,-49.264 17.504,-49.909 18.224,-50.277C18.224,-50.277 27.499,-55.022 30.516,-56.565C31.367,-57.001 32.31,-57.228 33.266,-57.228L33.266,-57.228C35.048,-57.228 36.649,-56.446 37.74,-55.203L37.762,-55.178C38.686,-54.131 39.244,-52.755 39.244,-51.25L38.823,-49.06C37.825,-44.169 37.162,-39.511 36.937,-35.093L36.931,-34.989C36.87,-33.92 36.84,-32.864 36.838,-31.823C36.838,-31.522 36.863,-31.224 36.917,-30.932L37.162,-29.911C37.162,-29.911 37.239,-29.782 37.345,-29.603C37.751,-28.922 38.227,-28.285 38.765,-27.703C40.851,-25.448 46.247,-19.615 46.247,-19.615C48.051,-17.665 47.933,-14.618 45.983,-12.814C44.033,-11.01 40.986,-11.129 39.182,-13.078L32.865,-19.906ZM36.114,-28.644L33.471,-21.107L40.334,-13.689C41.657,-12.259 43.892,-12.172 45.322,-13.495C46.752,-14.818 46.839,-17.053 45.516,-18.483L36.114,-28.644ZM16.557,-1.827L24.597,-24.756L31.985,-16.921L25.582,1.338C24.709,3.828 21.978,5.141 19.487,4.268C16.996,3.394 15.684,0.663 16.557,-1.827ZM41.426,-46.62L54.669,-36.77C56.39,-35.49 56.748,-33.054 55.468,-31.334C54.188,-29.613 51.752,-29.255 50.031,-30.535L40.016,-37.984C40.179,-41.144 40.654,-44.018 41.426,-46.62ZM48.501,-66.258C48.501,-61.905 44.972,-58.375 40.618,-58.375C36.264,-58.375 32.735,-61.905 32.735,-66.258C32.735,-70.612 36.264,-74.141 40.618,-74.141C44.972,-74.141 48.501,-70.612 48.501,-66.258ZM43.143,-4.16C43.143,-3.498 42.859,-2.869 42.363,-2.432C42.361,-2.432 42.361,-2.431 42.36,-2.431C42.244,-2.335 42.162,-2.205 42.123,-2.06C41.797,-0.842 41.668,-0.01 41.651,0.605C41.65,0.614 41.65,0.622 41.65,0.63C41.65,0.631 41.644,1.064 41.64,1.382C41.636,1.673 41.696,1.961 41.814,2.226C42.43,3.625 43.449,3.078 44.447,2.633C44.639,2.549 44.839,2.484 45.043,2.44C45.858,2.271 46.685,2.309 47.526,2.574C47.526,2.574 47.526,2.574 47.526,2.574C48.441,2.859 49.215,2.977 49.964,3.067C50.233,3.099 50.506,3.09 50.772,3.041C51.793,2.851 52.001,2.297 51.94,1.624C51.923,1.395 51.756,1.206 51.531,1.161C49.391,0.718 47.678,-0.495 45.269,-3.242C45.269,-3.242 45.269,-3.242 45.269,-3.243C45.168,-3.358 45.112,-3.507 45.111,-3.661C45.108,-4.658 45.098,-7.814 45.098,-7.814L45.721,-7.815L45.708,-12.868L42.525,-11.954L42.528,-7.806L43.143,-7.808C43.143,-7.808 43.143,-5.466 43.143,-4.16Z" style="fill:white;fill-rule:nonzero;"/>
                </g>
            </g>
        </g>
    </g>
</svg>
